<svg width="27" height="27" viewBox="0 0 27 27" fill="none" xmlns="http://www.w3.org/2000/svg">
<path d="M20.375 6.625H20.3875M7.25 1H19.75C23.2018 1 26 3.79822 26 7.25V19.75C26 23.2018 23.2018 26 19.75 26H7.25C3.79822 26 1 23.2018 1 19.75V7.25C1 3.79822 3.79822 1 7.25 1ZM18.5 12.7125C18.6543 13.7528 18.4766 14.8153 17.9922 15.7488C17.5078 16.6823 16.7414 17.4393 15.802 17.9121C14.8626 18.3849 13.7981 18.5495 12.7597 18.3824C11.7214 18.2153 10.7622 17.7251 10.0185 16.9815C9.2749 16.2378 8.78467 15.2786 8.61758 14.2403C8.4505 13.2019 8.61508 12.1374 9.08791 11.198C9.56073 10.2586 10.3177 9.49218 11.2512 9.0078C12.1847 8.52343 13.2472 8.34574 14.2875 8.5C15.3487 8.65736 16.3311 9.15183 17.0896 9.91038C17.8482 10.6689 18.3426 11.6513 18.5 12.7125Z" stroke="white" stroke-width="2" stroke-linecap="round" stroke-linejoin="round"/>
</svg>
