<svg width="30" height="25" viewBox="0 0 30 25" fill="none" xmlns="http://www.w3.org/2000/svg">
<path d="M28.5001 1.01257C27.3031 1.85692 25.9777 2.50271 24.5751 2.92507C23.8223 2.05946 22.8218 1.44593 21.7089 1.16748C20.596 0.88902 19.4245 0.959064 18.3527 1.36814C17.2809 1.77721 16.3606 2.50557 15.7163 3.45472C15.072 4.40386 14.7347 5.52799 14.7501 6.67507V7.92507C12.5534 7.98203 10.3767 7.49484 8.41385 6.50688C6.45102 5.51892 4.76299 4.06086 3.50009 2.26257C3.50009 2.26257 -1.49991 13.5126 9.75009 18.5126C7.17575 20.26 4.10904 21.1362 1.00009 21.0126C12.2501 27.2626 26.0001 21.0126 26.0001 6.63757C25.9989 6.28939 25.9655 5.94206 25.9001 5.60007C27.1758 4.34194 28.0761 2.75346 28.5001 1.01257Z" stroke="white" stroke-width="2" stroke-linecap="round" stroke-linejoin="round"/>
</svg>
